<svg height="448pt" viewBox="-24 0 448 448.0659" width="448pt" xmlns="http://www.w3.org/2000/svg"><path d="m240.03125 375.441406c.03125-3.707031.300781-7.410156.800781-11.082031.128907-1 .289063-1.992187.457031-2.984375.449219-2.695312 1.03125-5.34375 1.71875-7.941406.242188-.929688.34375-1.875.609376-2.792969 8.386718-28.371094 30.566406-50.566406 58.929687-58.976563.933594-.273437 1.894531-.375 2.839844-.617187 2.589843-.6875 5.226562-1.261719 7.902343-1.71875 1.007813-.167969 2.007813-.335937 3.023438-.464844 3.640625-.492187 7.304688-.761719 10.976562-.800781h.175782l.566406-.0625c3.699219.03125 7.386719.300781 11.050781.800781.800781.09375 1.519531.238281 2.277344.351563 3.050781.46875 6.070313 1.097656 9.050781 1.886718.535156.136719 1.09375.183594 1.597656.335938v-283.375c0-4.417969-3.582031-8-8-8h-239.976562v72c0 13.253906-10.742188 24-24 24h-80v296c0 4.417969 3.582031 8 8 8h235.34375c-.140625-.511719-.191406-1.054688-.324219-1.601562-.800781-3.007813-1.4375-6.058594-1.90625-9.132813-.113281-.738281-.246093-1.472656-.34375-2.21875-.484375-3.660156-.742187-7.351563-.769531-11.046875 0-.167969 0-.328125 0-.496094zm-104-231.441406h160c4.421875 0 8 3.582031 8 8s-3.578125 8-8 8h-160c-4.417969 0-8-3.582031-8-8s3.582031-8 8-8zm0 48h160c4.421875 0 8 3.582031 8 8s-3.578125 8-8 8h-160c-4.417969 0-8-3.582031-8-8s3.582031-8 8-8zm0 48h160c4.421875 0 8 3.582031 8 8s-3.578125 8-8 8h-160c-4.417969 0-8-3.582031-8-8s3.582031-8 8-8zm-32.40625 27.71875-33.9375 33.9375c-3.121094 3.121094-8.1875 3.121094-11.3125 0l-16.964844-16.96875c-3.03125-3.136719-2.988281-8.128906.097656-11.214844 3.085938-3.085937 8.074219-3.128906 11.214844-.097656l11.308594 11.3125 28.28125-28.28125c3.140625-3.03125 8.128906-2.988281 11.214844.097656 3.085937 3.085938 3.128906 8.078125.097656 11.214844zm0-48-33.9375 33.9375c-3.121094 3.121094-8.1875 3.121094-11.3125 0l-16.964844-16.96875c-3.03125-3.136719-2.988281-8.128906.097656-11.214844 3.085938-3.085937 8.074219-3.128906 11.214844-.097656l11.308594 11.3125 28.28125-28.28125c3.140625-3.03125 8.128906-2.988281 11.214844.097656 3.085937 3.085938 3.128906 8.078125.097656 11.214844zm0-48-33.9375 33.9375c-3.121094 3.121094-8.1875 3.121094-11.3125 0l-16.964844-16.96875c-2.082031-2.007812-2.914062-4.984375-2.183594-7.78125.734376-2.796875 2.917969-4.980469 5.714844-5.710938 2.796875-.734374 5.769532.101563 7.78125 2.179688l11.308594 11.3125 28.28125-28.28125c3.140625-3.03125 8.128906-2.988281 11.214844.097656 3.085937 3.085938 3.128906 8.078125.097656 11.214844zm0-48-33.9375 33.9375c-3.121094 3.121094-8.1875 3.121094-11.3125 0l-16.964844-16.96875c-2.082031-2.007812-2.914062-4.984375-2.183594-7.78125.734376-2.796875 2.917969-4.980469 5.714844-5.710938 2.796875-.734374 5.769532.101563 7.78125 2.179688l11.308594 11.3125 28.28125-28.28125c3.140625-3.03125 8.128906-2.988281 11.214844.097656 3.085937 3.085938 3.128906 8.078125.097656 11.214844zm32.40625 180.28125c-4.417969 0-8-3.582031-8-8s3.582031-8 8-8h120c4.421875 0 8 3.582031 8 8s-3.578125 8-8 8zm0 0"/><path d="m356.832031 310.054688c-2.101562-.933594-4.246093-1.726563-6.398437-2.445313-.878906-.289063-1.785156-.519531-2.671875-.800781-1.25-.351563-2.488281-.703125-3.753907-.992188-1.261718-.289062-2.320312-.472656-3.488281-.679687-1.039062-.175781-2.078125-.34375-3.125-.488281-1.242187-.160157-2.480469-.289063-3.730469-.382813-1.039062-.082031-2.09375-.128906-3.144531-.160156-1.238281 0-2.480469-.089844-3.71875-.066407-1.097656 0-2.183593.097657-3.273437.167969-1.085938.074219-2.308594.113281-3.460938.242188-33.441406 3.769531-59.828125 30.175781-63.570312 63.621093-.109375 1.058594-.152344 2.113282-.214844 3.203126-.082031 1.191406-.160156 2.398437-.183594 3.574218-.023437 1.175782 0 2.398438.0625 3.542969.066406 1.144531.089844 2.21875.167969 3.3125.082031 1.097656.226563 2.402344.386719 3.625.132812 1.070313.300781 2.136719.492187 3.199219.195313 1.066406.410157 2.3125.675781 3.457031.261719 1.144531.621094 2.398437.964844 3.65625.265625.925781.503906 1.863281.800782 2.785156.710937 2.140625 1.503906 4.261719 2.402343 6.34375 12.863281 29.59375 43.851563 47.015625 75.820313 42.628907 31.972656-4.390626 57.121094-29.515626 61.53125-61.484376 4.414062-31.96875-12.984375-62.972656-42.570313-75.859374zm19.199219 73.945312h-40v40c0 4.417969-3.578125 8-8 8-4.417969 0-8-3.582031-8-8v-40h-40c-4.417969 0-8-3.582031-8-8s3.582031-8 8-8h40v-40c0-4.417969 3.582031-8 8-8 4.421875 0 8 3.582031 8 8v40h40c4.421875 0 8 3.582031 8 8s-3.578125 8-8 8zm0 0"/><path d="m88.03125 72v-61.726562l-75.535156 69.726562h67.535156c4.421875 0 8-3.582031 8-8zm0 0"/></svg>