<svg height="511pt" viewBox="0 1 511.99972 511" width="511pt" xmlns="http://www.w3.org/2000/svg"><g fill-rule="evenodd"><path d="m289.363281 254.902344 208.589844-208.585938c8.714844-8.742187 8.714844-23.019531 0-31.761718-8.742187-8.714844-23.019531-8.714844-31.730469 0l-208.589844 208.585937 4.285157 29.800781zm0 0" fill="#a66d30"/><path d="m289.363281 254.902344-31.730469-31.761719-3.917968-3.886719c-6.101563-6.101562-16.09375-6.101562-22.195313 0l-17.058593 17.058594 8.03125 46.261719 53.703124 15.46875 17.058594-17.058594c6.101563-6.101563 6.101563-16.089844 0-22.195313zm0 0" fill="#d9a13f"/><path d="m291.125 312.972656-91.59375-91.59375c-7.496094-7.492187-19.21875-5.902344-28.242188.96875l-157.101562 119.378906c-9.027344 6.867188-8.460938 20.746094-.964844 28.238282l129.3125 129.316406c7.492188 7.492188 21.375 8.058594 28.242188-.964844l119.382812-157.074218c6.867188-9.054688 8.457032-20.746094.964844-28.269532zm0 0" fill="#f5df87"/><path d="m278.011719 357.222656-122.730469-122.699218-32.019531 24.324218 130.421875 130.390625zm0 0" fill="#ff698f"/><path d="m231.519531 219.253906-17.058593 17.058594 11.976562 11.976562 17.058594-17.058593c3.972656-3.972657 9.566406-5.363281 14.675781-4.171875 2.78125.652344 5.390625 2.042968 7.519531 4.171875l-8.058594-8.089844-3.917968-3.886719c-6.105469-6.105468-16.09375-6.105468-22.195313 0zm0 0" fill="#a66d30"/><path d="m466.222656 14.554688-208.589844 208.585937 8.058594 8.089844 4.03125 4 208.589844-208.585938c6.585938-6.585937 16.347656-8.203125 24.496094-4.824219-1.109375-2.640624-2.726563-5.109374-4.855469-7.265624-8.742187-8.714844-23.019531-8.714844-31.730469 0zm0 0" fill="#6e3e0b"/><path d="m123.261719 258.847656-109.074219 82.878906c-9.027344 6.867188-8.460938 20.746094-.964844 28.238282l17.371094 17.371094c-7.496094-7.492188-8.0625-21.371094.964844-28.242188l109.078125-82.90625zm0 0" fill="#d9a13f"/><path d="m155.28125 234.523438-32.019531 24.324218 17.371093 17.339844 32.019532-24.324219zm0 0" fill="#cf4b82"/><path d="m171.289062 222.347656-16.007812 12.175782 17.371094 17.339843 15.980468-12.148437c8.144532-6.1875 18.476563-8.089844 25.914063-2.921875.792969.539062 1.558594 1.164062 2.269531 1.902343l-2.355468-2.382812-14.929688-14.929688c-7.496094-7.496093-19.21875-5.90625-28.242188.964844zm0 0" fill="#d9a13f"/></g><path d="m503.253906 9.238281c-11.691406-11.65625-30.683594-11.648437-42.339844.007813l-203.367187 203.363281c-9.105469-7.671875-22.765625-7.238281-31.335937 1.335937l-11.75 11.75-9.621094-9.621093c-9.59375-9.59375-25.261719-9.472657-38.09375.296875l-157.105469 119.378906c-5.675781 4.320312-9.078125 10.78125-9.578125 18.199219-.535156 7.902343 2.402344 15.875 7.847656 21.324219l30.96875 30.96875c.007813.003906.011719.007812.015625.011718l33.667969 33.667969c.003906.003906.003906.003906.003906.007813.003906 0 .003906.003906.007813.003906l64.652343 64.652344c5.027344 5.027343 12.195313 7.914062 19.480469 7.914062.613281 0 1.230469-.023438 1.847657-.0625 7.414062-.5 13.878906-3.902344 18.199218-9.582031l82.746094-108.871094c.019531-.023437.035156-.042969.050781-.066406l36.589844-48.140625c9.738281-12.835938 9.863281-28.507813.300781-38.105469-.003906 0-.007812-.003906-.011718-.007813l-9.621094-9.621093 11.75-11.75c8.570312-8.566407 9.007812-22.214844 1.347656-31.320313l65.554688-65.550781c2.929687-2.929687 2.929687-7.683594 0-10.617187-2.933594-2.933594-7.6875-2.933594-10.617188 0l-65.480469 65.480468-21.128906-21.132812 203.292969-203.289063c5.8125-5.8125 15.289062-5.808593 21.109375-.007812 5.816406 5.832031 5.816406 15.324219.007812 21.148437l-108.878906 108.878906c-2.929687 2.933594-2.929687 7.6875 0 10.617188 2.929687 2.933594 7.683594 2.933594 10.617187 0l108.886719-108.886719c11.640625-11.675781 11.640625-30.679687-.015625-42.375zm-338.449218 484.53125c-2.121094 2.785157-5.121094 3.542969-7.261719 3.6875-3.597657.246094-7.304688-1.09375-9.699219-3.484375l-24.597656-24.601562 55.632812-69.421875c2.59375-3.234375 2.070313-7.960938-1.164062-10.550781-3.238282-2.59375-7.960938-2.074219-10.554688 1.164062l-54.597656 68.128906-24.066406-24.066406 40.640625-40.617188c2.933593-2.929687 2.933593-7.683593.003906-10.617187s-7.683594-2.933594-10.617187 0l-40.644532 40.617187-22.484375-22.484374 67.910157-54.421876c3.234374-2.59375 3.753906-7.316406 1.164062-10.554687-2.59375-3.234375-7.320312-3.757813-10.554688-1.164063l-69.203124 55.457032-26.183594-26.183594c-2.390625-2.390625-3.726563-6.109375-3.484375-9.695312.144531-2.140626.902343-5.140626 3.683593-7.257813l103.859376-78.921875 40.1875 40.164062c1.464843 1.464844 3.386718 2.195313 5.308593 2.195313s3.84375-.734375 5.308594-2.199219c2.929687-2.933594 2.929687-7.6875-.003906-10.617187l-38.734375-38.710938 19.945312-15.15625 113.46875 113.441407-15.160156 19.949218-54.738281-54.714844c-2.933594-2.933593-7.6875-2.933593-10.617188 0-2.933593 2.933594-2.933593 7.6875 0 10.617188l56.1875 56.160156zm119.375-157.070312-6.941407 9.132812-110.574219-110.542969 9.171876-6.96875c3.386718-2.578124 7.570312-4.390624 11.421874-4.390624 2.582032 0 5.019532.8125 6.964844 2.761718l91.582032 91.582032c4.84375 4.863281 2.675781 12.761718-1.625 18.425781zm3.761718-61.019531-11.75 11.746093-51.117187-51.113281 11.75-11.75c3.195312-3.191406 8.386719-3.195312 11.582031 0l39.539062 39.539062c3.191407 3.1875 3.191407 8.382813-.003906 11.578126zm0 0"/></svg>